# xmcd
#
# Track frame offsets: 
#        150
#        14727
#        27908
#        44876
#        56916
#        71910
#        89585
#        102581
#        118493
#        132207
#        146657
#        158329
#        174902
#        192277
#        207069
#        224212
#
# Disc length: 3156 seconds
#
# Revision: 0
# Processed by: cddbd v1.5.2PL0 Copyright (c) Steve Scherf et al.
# Submitted via: ExactAudioCopy v1.3
#
DISCID=030c5210
DTITLE=Cowboy Joe and the Swing Town Band - Swing Town_Cowboy Joe and 
DTITLE=Trail Jazz
DYEAR=2018
DGENRE=Western Swing
TTITLE0=Swing On Down To Swing Town
TTITLE1=Nobody Ever Loved You Like I Do
TTITLE2=The World's Saddest Song
TTITLE3=Back In The Swing of Things
TTITLE4=Why Did I Ever Leave My Happy Home
TTITLE5=The Band Has Stopped Playing
TTITLE6=I Washed My Hands In Muddy Water
TTITLE7=The Lord Loves Western Swing
TTITLE8=The Road of No Return
TTITLE9=Fried Chicken, Mashed Potatoes And Sweet Milk Gravy
TTITLE10=He's Got A Way With The Women
TTITLE11=You Make It Easy To Sin
TTITLE12=Second Best Solution
TTITLE13=If You See My Heart Today
TTITLE14=Take Your Troubles All To Jesus
TTITLE15=SwingTown Reprise
EXTD=
EXTT0=
EXTT1=
EXTT2=
EXTT3=
EXTT4=
EXTT5=
EXTT6=
EXTT7=
EXTT8=
EXTT9=
EXTT10=
EXTT11=
EXTT12=
EXTT13=
EXTT14=
EXTT15=
PLAYORDER=
